<svg width="81" height="58" viewBox="0 0 81 58" fill="none" xmlns="http://www.w3.org/2000/svg">
<path d="M13.8533 19.5781C14.6394 17.4162 16.0828 15.3382 17.5169 13.5644C18.5124 12.3331 19.9914 10.921 21.669 10.792C22.0003 10.7665 22.2289 10.8993 22.4875 11.1022C23.2646 11.7121 23.849 12.4906 24.3094 13.3598C24.9522 14.5731 25.4049 15.8783 26.0125 17.1092C26.1795 17.4475 26.3502 17.804 26.5604 18.1192C26.6966 18.3235 27.1528 18.9374 27.3204 19.0492M42.1325 18.1522C43.1807 16.5799 44.0928 14.9268 45.2284 13.4126C45.8603 12.5701 46.523 11.7367 47.2814 11.0032C47.7974 10.5041 48.3332 10.1579 49.0637 10.0988C50.7677 9.96114 51.7506 12.249 52.3444 13.4654C52.8072 14.4133 53.2253 15.3791 53.6515 16.3435C54.0489 17.243 54.5554 18.0394 55.0839 18.8651M29.894 19.4592C29.8733 19.4592 30.3843 19.4047 30.4617 19.3932C31.3871 19.2554 32.3155 19.1604 33.2474 19.0763C35.4664 18.8761 37.773 18.6313 39.9937 18.8651M12.5462 24.5684C11.6051 27.7754 11.1295 31.0639 10.8431 34.3909C10.5956 37.2674 10.2878 40.5121 12.2162 42.9064C14.7579 46.0622 19.2086 46.2158 22.8836 45.4808M26.6858 45.7185H42.9642M55.3083 37.1266C55.3083 35.122 55.213 33.4254 55.2027 31.4205C55.1894 28.8549 55.0427 26.2993 54.965 23.7368M57.4603 18.984C59.3661 18.0437 61.363 17.3836 63.3485 16.634C65.1686 15.9468 66.9398 15.4345 68.8096 14.9003V14.3076M27.3204 18.984C29.2263 18.0437 31.2231 17.3836 33.2086 16.634C35.0288 15.9468 36.8 15.4345 38.6698 14.9003M55.1774 14.3076H68.8096M68.8096 14.3076H69.1059C71.4767 26.7543 70.884 38.312 70.2913 40.9792C69.6986 43.6463 67.0315 44.5354 61.1045 46.0171C55.1774 47.4989 47.4723 47.4989 47.4723 44.239C47.4723 40.9792 53.3993 40.9792 59.6227 39.4974C64.6014 38.312 65.2534 38.0157 65.2534 35.9412M35.0256 35.2522C34.8287 36.4333 34.5335 37.6145 31.8759 35.9412C29.8286 37.9098 29.612 36.3021 29.7105 35.2522M20.8007 33.9983H20.8173M43.9327 33.9983H43.9493" stroke="white" stroke-width="2.5" stroke-linecap="round" stroke-linejoin="round"/>
</svg>
