<svg width="407" height="61" viewBox="0 0 407 61" fill="none" xmlns="http://www.w3.org/2000/svg">
<path d="M52 50H18V25C13 25 10 24 10 19C10 14 18 10 34.5 10C52 10 60 14 60 19C60 24.2 57 25 52 25V50Z" stroke="white"/>
<path d="M27.4024 29.072C27.0984 29.072 26.8424 29.0187 26.6344 28.912C26.4317 28.8 26.2797 28.64 26.1784 28.432C26.077 28.2187 26.0264 27.96 26.0264 27.656V25.616H25.4904C25.3997 25.616 25.3304 25.5947 25.2824 25.552C25.2344 25.504 25.2104 25.44 25.2104 25.36C25.2104 25.28 25.2344 25.2187 25.2824 25.176C25.3304 25.1333 25.3997 25.112 25.4904 25.112H26.0264V24.192C26.0264 24.0853 26.0557 24.0053 26.1144 23.952C26.173 23.8933 26.253 23.864 26.3544 23.864C26.4557 23.864 26.533 23.8933 26.5864 23.952C26.645 24.0053 26.6744 24.0853 26.6744 24.192V25.112H27.6824C27.773 25.112 27.8424 25.1333 27.8904 25.176C27.9384 25.2187 27.9624 25.28 27.9624 25.36C27.9624 25.44 27.9384 25.504 27.8904 25.552C27.8424 25.5947 27.773 25.616 27.6824 25.616H26.6744V27.592C26.6744 27.896 26.7384 28.128 26.8664 28.288C26.9944 28.4427 27.2024 28.52 27.4904 28.52C27.5917 28.52 27.677 28.5093 27.7464 28.488C27.821 28.4667 27.8824 28.456 27.9304 28.456C27.9784 28.4507 28.0184 28.4667 28.0504 28.504C28.0824 28.5413 28.0984 28.6053 28.0984 28.696C28.0984 28.76 28.085 28.8187 28.0584 28.872C28.037 28.9253 27.997 28.9627 27.9384 28.984C27.8744 29.0053 27.789 29.024 27.6824 29.04C27.581 29.0613 27.4877 29.072 27.4024 29.072ZM30.3522 29.072C29.9415 29.072 29.5869 28.992 29.2882 28.832C28.9949 28.6667 28.7655 28.4347 28.6002 28.136C28.4402 27.8373 28.3602 27.48 28.3602 27.064C28.3602 26.6587 28.4402 26.3067 28.6002 26.008C28.7602 25.704 28.9789 25.4667 29.2562 25.296C29.5389 25.1253 29.8642 25.04 30.2322 25.04C30.4935 25.04 30.7282 25.0853 30.9362 25.176C31.1442 25.2613 31.3202 25.3867 31.4642 25.552C31.6135 25.7173 31.7255 25.9173 31.8002 26.152C31.8802 26.3867 31.9202 26.6507 31.9202 26.944C31.9202 27.0293 31.8962 27.0933 31.8482 27.136C31.8002 27.1733 31.7309 27.192 31.6402 27.192H28.8562V26.768H31.4882L31.3602 26.872C31.3602 26.584 31.3175 26.3413 31.2322 26.144C31.1469 25.9413 31.0215 25.7867 30.8562 25.68C30.6962 25.5733 30.4935 25.52 30.2482 25.52C29.9762 25.52 29.7442 25.584 29.5522 25.712C29.3655 25.8347 29.2242 26.008 29.1282 26.232C29.0322 26.4507 28.9842 26.7067 28.9842 27V27.048C28.9842 27.5387 29.1015 27.912 29.3362 28.168C29.5762 28.424 29.9149 28.552 30.3522 28.552C30.5335 28.552 30.7122 28.528 30.8882 28.48C31.0695 28.432 31.2455 28.352 31.4162 28.24C31.4909 28.192 31.5575 28.1707 31.6162 28.176C31.6802 28.176 31.7309 28.1947 31.7682 28.232C31.8055 28.264 31.8295 28.3067 31.8402 28.36C31.8562 28.408 31.8509 28.4613 31.8242 28.52C31.8029 28.5787 31.7575 28.6293 31.6882 28.672C31.5122 28.8 31.3042 28.8987 31.0642 28.968C30.8242 29.0373 30.5869 29.072 30.3522 29.072ZM33.194 29.056C33.0873 29.056 33.0073 29.0267 32.954 28.968C32.9007 28.9093 32.874 28.8267 32.874 28.72V25.384C32.874 25.2773 32.9007 25.1973 32.954 25.144C33.0073 25.0853 33.0847 25.056 33.186 25.056C33.2873 25.056 33.3647 25.0853 33.418 25.144C33.4767 25.1973 33.506 25.2773 33.506 25.384V26.088L33.418 25.976C33.5193 25.6773 33.682 25.448 33.906 25.288C34.1353 25.1227 34.4073 25.04 34.722 25.04C35.0527 25.04 35.3193 25.12 35.522 25.28C35.73 25.4347 35.8687 25.6773 35.938 26.008H35.818C35.914 25.7093 36.0847 25.4747 36.33 25.304C36.5807 25.128 36.8713 25.04 37.202 25.04C37.4953 25.04 37.7353 25.096 37.922 25.208C38.114 25.32 38.258 25.4907 38.354 25.72C38.45 25.944 38.498 26.2293 38.498 26.576V28.72C38.498 28.8267 38.4687 28.9093 38.41 28.968C38.3567 29.0267 38.2767 29.056 38.17 29.056C38.0687 29.056 37.9887 29.0267 37.93 28.968C37.8767 28.9093 37.85 28.8267 37.85 28.72V26.608C37.85 26.2507 37.7887 25.9893 37.666 25.824C37.5433 25.6533 37.3353 25.568 37.042 25.568C36.722 25.568 36.4687 25.68 36.282 25.904C36.1007 26.1227 36.01 26.4213 36.01 26.8V28.72C36.01 28.8267 35.9807 28.9093 35.922 28.968C35.8687 29.0267 35.7887 29.056 35.682 29.056C35.5807 29.056 35.5007 29.0267 35.442 28.968C35.3887 28.9093 35.362 28.8267 35.362 28.72V26.608C35.362 26.2507 35.298 25.9893 35.17 25.824C35.0473 25.6533 34.842 25.568 34.554 25.568C34.234 25.568 33.9807 25.68 33.794 25.904C33.6127 26.1227 33.522 26.4213 33.522 26.8V28.72C33.522 28.944 33.4127 29.056 33.194 29.056ZM40.0296 30.496C39.9229 30.496 39.8429 30.4667 39.7896 30.408C39.7362 30.3547 39.7096 30.2747 39.7096 30.168V25.384C39.7096 25.2773 39.7362 25.1973 39.7896 25.144C39.8429 25.0853 39.9202 25.056 40.0216 25.056C40.1282 25.056 40.2082 25.0853 40.2616 25.144C40.3202 25.1973 40.3496 25.2773 40.3496 25.384V26.144L40.2616 26.032C40.3469 25.728 40.5149 25.488 40.7656 25.312C41.0216 25.1307 41.3256 25.04 41.6776 25.04C42.0242 25.04 42.3256 25.1227 42.5816 25.288C42.8429 25.448 43.0429 25.68 43.1816 25.984C43.3256 26.2827 43.3976 26.64 43.3976 27.056C43.3976 27.4667 43.3256 27.824 43.1816 28.128C43.0429 28.4267 42.8456 28.6587 42.5896 28.824C42.3336 28.9893 42.0296 29.072 41.6776 29.072C41.3256 29.072 41.0242 28.984 40.7736 28.808C40.5229 28.6267 40.3522 28.3867 40.2616 28.088H40.3576V30.168C40.3576 30.2747 40.3282 30.3547 40.2696 30.408C40.2109 30.4667 40.1309 30.496 40.0296 30.496ZM41.5416 28.552C41.7869 28.552 41.9976 28.4933 42.1736 28.376C42.3549 28.2587 42.4936 28.088 42.5896 27.864C42.6909 27.64 42.7416 27.3707 42.7416 27.056C42.7416 26.5707 42.6322 26.2 42.4136 25.944C42.2002 25.688 41.9096 25.56 41.5416 25.56C41.3016 25.56 41.0909 25.6187 40.9096 25.736C40.7282 25.848 40.5869 26.016 40.4856 26.24C40.3896 26.4587 40.3416 26.7307 40.3416 27.056C40.3416 27.536 40.4509 27.9067 40.6696 28.168C40.8882 28.424 41.1789 28.552 41.5416 28.552ZM28.3389 40.072C27.9549 40.072 27.6615 39.9547 27.4589 39.72C27.2562 39.4853 27.1549 39.1493 27.1549 38.712V34.632C27.1549 34.5253 27.1815 34.4453 27.2349 34.392C27.2882 34.3333 27.3682 34.304 27.4749 34.304C27.5762 34.304 27.6562 34.3333 27.7149 34.392C27.7735 34.4453 27.8029 34.5253 27.8029 34.632V38.664C27.8029 38.952 27.8589 39.168 27.9709 39.312C28.0882 39.4507 28.2589 39.52 28.4829 39.52C28.5309 39.52 28.5735 39.5173 28.6109 39.512C28.6482 39.5067 28.6855 39.504 28.7229 39.504C28.7815 39.4987 28.8215 39.512 28.8429 39.544C28.8695 39.576 28.8829 39.64 28.8829 39.736C28.8829 39.832 28.8615 39.904 28.8189 39.952C28.7762 40 28.7069 40.032 28.6109 40.048C28.5682 40.0533 28.5229 40.0587 28.4749 40.064C28.4269 40.0693 28.3815 40.072 28.3389 40.072ZM31.099 40.072C30.7203 40.072 30.3923 39.9893 30.115 39.824C29.8377 39.6587 29.6217 39.4267 29.467 39.128C29.3177 38.824 29.243 38.4667 29.243 38.056C29.243 37.7467 29.2857 37.4693 29.371 37.224C29.4563 36.9733 29.5817 36.76 29.747 36.584C29.9123 36.408 30.107 36.2747 30.331 36.184C30.5603 36.088 30.8163 36.04 31.099 36.04C31.4777 36.04 31.8057 36.1227 32.083 36.288C32.3603 36.4533 32.5737 36.688 32.723 36.992C32.8777 37.2907 32.955 37.6453 32.955 38.056C32.955 38.3653 32.9123 38.6427 32.827 38.888C32.7417 39.1333 32.6163 39.3467 32.451 39.528C32.2857 39.704 32.0883 39.84 31.859 39.936C31.635 40.0267 31.3817 40.072 31.099 40.072ZM31.099 39.552C31.339 39.552 31.5497 39.4933 31.731 39.376C31.9123 39.2587 32.051 39.088 32.147 38.864C32.2483 38.64 32.299 38.3707 32.299 38.056C32.299 37.5707 32.1897 37.2 31.971 36.944C31.7577 36.688 31.467 36.56 31.099 36.56C30.8537 36.56 30.6403 36.6187 30.459 36.736C30.283 36.848 30.1443 37.016 30.043 37.24C29.947 37.4587 29.899 37.7307 29.899 38.056C29.899 38.536 30.0083 38.9067 30.227 39.168C30.4457 39.424 30.7363 39.552 31.099 39.552ZM35.6483 41.512C35.3656 41.512 35.0883 41.4773 34.8163 41.408C34.5496 41.344 34.307 41.24 34.0883 41.096C34.0243 41.0587 33.9816 41.0133 33.9603 40.96C33.9443 40.9067 33.9416 40.8533 33.9523 40.8C33.963 40.752 33.987 40.7067 34.0243 40.664C34.0616 40.6267 34.1043 40.6027 34.1523 40.592C34.2056 40.5813 34.259 40.5893 34.3123 40.616C34.547 40.76 34.771 40.8587 34.9843 40.912C35.1976 40.9653 35.4083 40.992 35.6163 40.992C35.995 40.992 36.2803 40.8907 36.4723 40.688C36.6696 40.4853 36.7683 40.192 36.7683 39.808V38.904H36.8483C36.7683 39.2133 36.5976 39.4587 36.3363 39.64C36.0803 39.8213 35.779 39.912 35.4323 39.912C35.075 39.912 34.7656 39.832 34.5043 39.672C34.243 39.5067 34.0403 39.2773 33.8963 38.984C33.7576 38.6907 33.6883 38.352 33.6883 37.968C33.6883 37.68 33.7283 37.4187 33.8083 37.184C33.8883 36.944 34.003 36.7413 34.1523 36.576C34.307 36.4053 34.491 36.2747 34.7043 36.184C34.923 36.088 35.1656 36.04 35.4323 36.04C35.7843 36.04 36.0883 36.1307 36.3443 36.312C36.6003 36.488 36.7656 36.728 36.8403 37.032L36.7603 37.128V36.384C36.7603 36.2773 36.787 36.1973 36.8403 36.144C36.899 36.0853 36.979 36.056 37.0803 36.056C37.187 36.056 37.267 36.0853 37.3203 36.144C37.3736 36.1973 37.4003 36.2773 37.4003 36.384V39.72C37.4003 40.312 37.251 40.7573 36.9523 41.056C36.659 41.36 36.2243 41.512 35.6483 41.512ZM35.5523 39.384C35.803 39.384 36.019 39.328 36.2003 39.216C36.3816 39.0987 36.5203 38.9333 36.6163 38.72C36.7176 38.5067 36.7683 38.256 36.7683 37.968C36.7683 37.536 36.659 37.1947 36.4403 36.944C36.2216 36.688 35.9256 36.56 35.5523 36.56C35.307 36.56 35.0936 36.6187 34.9123 36.736C34.731 36.848 34.5896 37.0107 34.4883 37.224C34.3923 37.432 34.3443 37.68 34.3443 37.968C34.3443 38.4 34.4536 38.744 34.6723 39C34.891 39.256 35.1843 39.384 35.5523 39.384ZM40.2318 40.072C39.8531 40.072 39.5251 39.9893 39.2478 39.824C38.9705 39.6587 38.7545 39.4267 38.5998 39.128C38.4505 38.824 38.3758 38.4667 38.3758 38.056C38.3758 37.7467 38.4185 37.4693 38.5038 37.224C38.5891 36.9733 38.7145 36.76 38.8798 36.584C39.0451 36.408 39.2398 36.2747 39.4638 36.184C39.6931 36.088 39.9491 36.04 40.2318 36.04C40.6105 36.04 40.9385 36.1227 41.2158 36.288C41.4931 36.4533 41.7065 36.688 41.8558 36.992C42.0105 37.2907 42.0878 37.6453 42.0878 38.056C42.0878 38.3653 42.0451 38.6427 41.9598 38.888C41.8745 39.1333 41.7491 39.3467 41.5838 39.528C41.4185 39.704 41.2211 39.84 40.9918 39.936C40.7678 40.0267 40.5145 40.072 40.2318 40.072ZM40.2318 39.552C40.4718 39.552 40.6825 39.4933 40.8638 39.376C41.0451 39.2587 41.1838 39.088 41.2798 38.864C41.3811 38.64 41.4318 38.3707 41.4318 38.056C41.4318 37.5707 41.3225 37.2 41.1038 36.944C40.8905 36.688 40.5998 36.56 40.2318 36.56C39.9865 36.56 39.7731 36.6187 39.5918 36.736C39.4158 36.848 39.2771 37.016 39.1758 37.24C39.0798 37.4587 39.0318 37.7307 39.0318 38.056C39.0318 38.536 39.1411 38.9067 39.3598 39.168C39.5785 39.424 39.8691 39.552 40.2318 39.552Z" fill="white"/>
<path d="M79.6453 40.2696C78.3273 40.2696 77.189 39.9301 76.2305 39.2511C75.2919 38.5722 74.6629 37.6636 74.3434 36.5253L74.6729 36.1958V38.9516C74.6729 39.351 74.563 39.6605 74.3434 39.8802C74.1437 40.0998 73.8541 40.2097 73.4747 40.2097C73.0753 40.2097 72.7758 40.0998 72.5761 39.8802C72.3764 39.6605 72.2765 39.351 72.2765 38.9516V19.9007C72.2765 19.5013 72.3764 19.2018 72.5761 19.0021C72.7758 18.7824 73.0753 18.6726 73.4747 18.6726C73.8541 18.6726 74.1536 18.7824 74.3733 19.0021C74.593 19.2018 74.7028 19.5013 74.7028 19.9007V28.8271H74.3434C74.6828 27.7088 75.3219 26.8202 76.2604 26.1612C77.199 25.5022 78.3273 25.1727 79.6453 25.1727C80.9632 25.1727 82.1015 25.4822 83.06 26.1013C84.0186 26.7003 84.7574 27.569 85.2766 28.7073C85.8158 29.8256 86.0854 31.1635 86.0854 32.7211C86.0854 34.2588 85.8158 35.5967 85.2766 36.735C84.7574 37.8533 84.0086 38.722 83.0301 39.341C82.0715 39.9601 80.9433 40.2696 79.6453 40.2696ZM79.136 38.3226C80.0546 38.3226 80.8434 38.1029 81.5024 37.6636C82.1814 37.2242 82.7006 36.5852 83.06 35.7465C83.4395 34.9078 83.6292 33.8993 83.6292 32.7211C83.6292 30.9039 83.2198 29.516 82.401 28.5575C81.6023 27.599 80.5139 27.1197 79.136 27.1197C78.2374 27.1197 77.4486 27.3394 76.7696 27.7787C76.0907 28.198 75.5615 28.8271 75.1821 29.6658C74.8226 30.4845 74.6429 31.503 74.6429 32.7211C74.6429 34.5184 75.0523 35.9063 75.871 36.8848C76.6898 37.8433 77.7781 38.3226 79.136 38.3226ZM94.8922 40.2696C93.714 40.2696 92.7355 40.0599 91.9567 39.6405C91.1978 39.2012 90.6187 38.5522 90.2193 37.6935C89.8399 36.8348 89.6502 35.7665 89.6502 34.4884V26.4607C89.6502 26.0413 89.75 25.7318 89.9497 25.5321C90.1694 25.3324 90.4689 25.2326 90.8484 25.2326C91.2477 25.2326 91.5473 25.3324 91.747 25.5321C91.9666 25.7318 92.0765 26.0413 92.0765 26.4607V34.4585C92.0765 35.7365 92.3361 36.6951 92.8553 37.3341C93.3945 37.9531 94.2332 38.2627 95.3714 38.2627C96.6095 38.2627 97.618 37.8433 98.3968 37.0046C99.1756 36.1659 99.565 35.0675 99.565 33.7096V26.4607C99.565 26.0413 99.6649 25.7318 99.8646 25.5321C100.084 25.3324 100.394 25.2326 100.793 25.2326C101.173 25.2326 101.462 25.3324 101.662 25.5321C101.881 25.7318 101.991 26.0413 101.991 26.4607V38.9516C101.991 39.7903 101.602 40.2097 100.823 40.2097C100.444 40.2097 100.144 40.0998 99.9245 39.8802C99.7248 39.6605 99.6249 39.351 99.6249 38.9516V36.2258L100.014 36.6451C99.615 37.8233 98.956 38.722 98.0374 39.341C97.1387 39.9601 96.0903 40.2696 94.8922 40.2696ZM112.372 40.2696C111.234 40.2696 110.275 40.0699 109.496 39.6705C108.737 39.2511 108.168 38.6521 107.789 37.8733C107.409 37.0745 107.22 36.106 107.22 34.9677V27.3294H105.213C104.873 27.3294 104.614 27.2495 104.434 27.0897C104.254 26.91 104.164 26.6704 104.164 26.3708C104.164 26.0713 104.254 25.8416 104.434 25.6819C104.614 25.5221 104.873 25.4423 105.213 25.4423H107.22V21.9975C107.22 21.5981 107.33 21.2986 107.549 21.0989C107.769 20.8792 108.068 20.7694 108.448 20.7694C108.827 20.7694 109.117 20.8792 109.317 21.0989C109.536 21.2986 109.646 21.5981 109.646 21.9975V25.4423H113.42C113.76 25.4423 114.019 25.5221 114.199 25.6819C114.379 25.8416 114.469 26.0713 114.469 26.3708C114.469 26.6704 114.379 26.91 114.199 27.0897C114.019 27.2495 113.76 27.3294 113.42 27.3294H109.646V34.7281C109.646 35.8663 109.886 36.735 110.365 37.3341C110.844 37.9132 111.623 38.2027 112.701 38.2027C113.081 38.2027 113.4 38.1628 113.66 38.0829C113.939 38.0031 114.169 37.9631 114.349 37.9631C114.529 37.9431 114.678 38.0031 114.798 38.1428C114.918 38.2826 114.978 38.5223 114.978 38.8617C114.978 39.1014 114.928 39.321 114.828 39.5207C114.748 39.7204 114.598 39.8602 114.379 39.9401C114.139 40.02 113.82 40.0899 113.42 40.1498C113.041 40.2296 112.691 40.2696 112.372 40.2696ZM122.464 40.2696C121.326 40.2696 120.367 40.0699 119.588 39.6705C118.829 39.2511 118.26 38.6521 117.881 37.8733C117.501 37.0745 117.312 36.106 117.312 34.9677V27.3294H115.305C114.965 27.3294 114.706 27.2495 114.526 27.0897C114.346 26.91 114.256 26.6704 114.256 26.3708C114.256 26.0713 114.346 25.8416 114.526 25.6819C114.706 25.5221 114.965 25.4423 115.305 25.4423H117.312V21.9975C117.312 21.5981 117.422 21.2986 117.641 21.0989C117.861 20.8792 118.16 20.7694 118.54 20.7694C118.919 20.7694 119.209 20.8792 119.409 21.0989C119.628 21.2986 119.738 21.5981 119.738 21.9975V25.4423H123.512C123.852 25.4423 124.111 25.5221 124.291 25.6819C124.471 25.8416 124.561 26.0713 124.561 26.3708C124.561 26.6704 124.471 26.91 124.291 27.0897C124.111 27.2495 123.852 27.3294 123.512 27.3294H119.738V34.7281C119.738 35.8663 119.978 36.735 120.457 37.3341C120.936 37.9132 121.715 38.2027 122.793 38.2027C123.173 38.2027 123.492 38.1628 123.752 38.0829C124.031 38.0031 124.261 37.9631 124.441 37.9631C124.621 37.9431 124.77 38.0031 124.89 38.1428C125.01 38.2826 125.07 38.5223 125.07 38.8617C125.07 39.1014 125.02 39.321 124.92 39.5207C124.84 39.7204 124.69 39.8602 124.471 39.9401C124.231 40.02 123.912 40.0899 123.512 40.1498C123.133 40.2296 122.783 40.2696 122.464 40.2696ZM133.509 40.2696C131.971 40.2696 130.643 39.97 129.525 39.371C128.427 38.7519 127.568 37.8832 126.949 36.7649C126.35 35.6467 126.05 34.3087 126.05 32.7511C126.05 31.2334 126.35 29.9154 126.949 28.7971C127.548 27.6589 128.367 26.7702 129.405 26.1312C130.463 25.4922 131.682 25.1727 133.059 25.1727C134.038 25.1727 134.917 25.3424 135.695 25.6819C136.474 26.0014 137.133 26.4707 137.672 27.0897C138.232 27.7088 138.651 28.4576 138.93 29.3363C139.23 30.215 139.38 31.2034 139.38 32.3018C139.38 32.6213 139.29 32.8609 139.11 33.0207C138.93 33.1605 138.671 33.2304 138.331 33.2304H127.907V31.6428H137.762L137.283 32.0322C137.283 30.9538 137.123 30.0452 136.804 29.3063C136.484 28.5475 136.015 27.9684 135.396 27.569C134.797 27.1696 134.038 26.9699 133.119 26.9699C132.101 26.9699 131.232 27.2096 130.513 27.6888C129.814 28.1481 129.285 28.7971 128.926 29.6358C128.566 30.4546 128.387 31.4131 128.387 32.5114V32.6912C128.387 34.5284 128.826 35.9262 129.705 36.8848C130.603 37.8433 131.871 38.3226 133.509 38.3226C134.188 38.3226 134.857 38.2327 135.516 38.053C136.195 37.8733 136.854 37.5737 137.493 37.1544C137.772 36.9746 138.022 36.8947 138.242 36.9147C138.481 36.9147 138.671 36.9846 138.811 37.1244C138.95 37.2442 139.04 37.404 139.08 37.6037C139.14 37.7834 139.12 37.9831 139.02 38.2027C138.94 38.4224 138.771 38.6121 138.511 38.7719C137.852 39.2511 137.073 39.6206 136.175 39.8802C135.276 40.1398 134.387 40.2696 133.509 40.2696ZM144.119 40.2097C143.72 40.2097 143.41 40.0998 143.191 39.8802C142.991 39.6605 142.891 39.351 142.891 38.9516V26.4607C142.891 26.0613 142.991 25.7618 143.191 25.5621C143.39 25.3424 143.68 25.2326 144.059 25.2326C144.439 25.2326 144.728 25.3424 144.928 25.5621C145.148 25.7618 145.258 26.0613 145.258 26.4607V28.887H144.958C145.278 27.7088 145.887 26.8002 146.785 26.1612C147.684 25.5221 148.792 25.1827 150.11 25.1427C150.41 25.1227 150.649 25.1926 150.829 25.3524C151.009 25.4922 151.109 25.7418 151.129 26.1013C151.149 26.4407 151.069 26.7103 150.889 26.91C150.709 27.1097 150.43 27.2295 150.05 27.2695L149.571 27.3294C148.213 27.4492 147.165 27.8885 146.426 28.6474C145.707 29.3862 145.347 30.4047 145.347 31.7027V38.9516C145.347 39.351 145.238 39.6605 145.018 39.8802C144.818 40.0998 144.519 40.2097 144.119 40.2097ZM160.011 40.2696C158.474 40.2696 157.146 39.97 156.027 39.371C154.929 38.7519 154.07 37.8832 153.451 36.7649C152.852 35.6467 152.553 34.3087 152.553 32.7511C152.553 31.2334 152.852 29.9154 153.451 28.7971C154.05 27.6589 154.869 26.7702 155.907 26.1312C156.966 25.4922 158.184 25.1727 159.562 25.1727C160.54 25.1727 161.419 25.3424 162.198 25.6819C162.977 26.0014 163.636 26.4707 164.175 27.0897C164.734 27.7088 165.153 28.4576 165.433 29.3363C165.732 30.215 165.882 31.2034 165.882 32.3018C165.882 32.6213 165.792 32.8609 165.613 33.0207C165.433 33.1605 165.173 33.2304 164.834 33.2304H154.41V31.6428H164.265L163.785 32.0322C163.785 30.9538 163.626 30.0452 163.306 29.3063C162.987 28.5475 162.517 27.9684 161.898 27.569C161.299 27.1696 160.54 26.9699 159.622 26.9699C158.603 26.9699 157.735 27.2096 157.016 27.6888C156.317 28.1481 155.788 28.7971 155.428 29.6358C155.069 30.4546 154.889 31.4131 154.889 32.5114V32.6912C154.889 34.5284 155.328 35.9262 156.207 36.8848C157.106 37.8433 158.374 38.3226 160.011 38.3226C160.69 38.3226 161.359 38.2327 162.018 38.053C162.697 37.8733 163.356 37.5737 163.995 37.1544C164.275 36.9746 164.524 36.8947 164.744 36.9147C164.984 36.9147 165.173 36.9846 165.313 37.1244C165.453 37.2442 165.543 37.404 165.583 37.6037C165.643 37.7834 165.623 37.9831 165.523 38.2027C165.443 38.4224 165.273 38.6121 165.014 38.7719C164.355 39.2511 163.576 39.6206 162.677 39.8802C161.779 40.1398 160.89 40.2696 160.011 40.2696ZM174.935 40.2696C173.637 40.2696 172.499 39.9601 171.52 39.341C170.562 38.722 169.813 37.8533 169.274 36.735C168.755 35.5967 168.495 34.2588 168.495 32.7211C168.495 31.1635 168.755 29.8256 169.274 28.7073C169.813 27.569 170.562 26.7003 171.52 26.1013C172.499 25.4822 173.637 25.1727 174.935 25.1727C176.253 25.1727 177.381 25.5022 178.32 26.1612C179.259 26.8202 179.888 27.7088 180.207 28.8271H179.878V19.9007C179.878 19.5013 179.977 19.2018 180.177 19.0021C180.397 18.7824 180.706 18.6726 181.106 18.6726C181.485 18.6726 181.775 18.7824 181.974 19.0021C182.194 19.2018 182.304 19.5013 182.304 19.9007V38.9516C182.304 39.351 182.204 39.6605 182.004 39.8802C181.805 40.0998 181.505 40.2097 181.106 40.2097C180.726 40.2097 180.427 40.0998 180.207 39.8802C180.007 39.6605 179.908 39.351 179.908 38.9516V36.106L180.237 36.5253C179.918 37.6636 179.279 38.5722 178.32 39.2511C177.381 39.9301 176.253 40.2696 174.935 40.2696ZM175.444 38.3226C176.343 38.3226 177.132 38.1029 177.811 37.6636C178.49 37.2242 179.009 36.5852 179.368 35.7465C179.748 34.9078 179.938 33.8993 179.938 32.7211C179.938 30.9039 179.528 29.516 178.709 28.5575C177.911 27.599 176.822 27.1197 175.444 27.1197C174.526 27.1197 173.727 27.3394 173.048 27.7787C172.389 28.198 171.87 28.8271 171.49 29.6658C171.131 30.4845 170.951 31.503 170.951 32.7211C170.951 34.5184 171.361 35.9063 172.179 36.8848C172.998 37.8433 174.086 38.3226 175.444 38.3226ZM193.028 40.2696C191.57 40.2696 190.312 39.9501 189.254 39.3111C188.195 38.672 187.376 37.7834 186.797 36.6451C186.238 35.4869 185.959 34.1489 185.959 32.6313C185.959 31.473 186.118 30.4346 186.438 29.516C186.757 28.5974 187.227 27.8186 187.846 27.1796C188.465 26.5206 189.204 26.0214 190.062 25.6819C190.941 25.3424 191.929 25.1727 193.028 25.1727C193.747 25.1727 194.496 25.2825 195.274 25.5022C196.053 25.7218 196.762 26.1013 197.401 26.6404C197.601 26.7802 197.731 26.95 197.79 27.1496C197.85 27.3493 197.85 27.549 197.79 27.7487C197.731 27.9285 197.631 28.0882 197.491 28.228C197.351 28.3478 197.171 28.4177 196.952 28.4377C196.752 28.4576 196.542 28.3878 196.323 28.228C195.804 27.8286 195.274 27.549 194.735 27.3893C194.196 27.2295 193.677 27.1496 193.178 27.1496C192.399 27.1496 191.72 27.2794 191.141 27.5391C190.562 27.7787 190.072 28.1282 189.673 28.5874C189.273 29.0467 188.964 29.6159 188.744 30.2948C188.545 30.9738 188.445 31.7626 188.445 32.6612C188.445 34.3986 188.854 35.7765 189.673 36.7949C190.492 37.7934 191.66 38.2926 193.178 38.2926C193.677 38.2926 194.186 38.2127 194.705 38.053C195.244 37.8932 195.784 37.6136 196.323 37.2143C196.542 37.0545 196.752 36.9846 196.952 37.0046C197.151 37.0245 197.321 37.1044 197.461 37.2442C197.601 37.364 197.691 37.5238 197.731 37.7235C197.79 37.9232 197.79 38.1229 197.731 38.3226C197.671 38.5023 197.541 38.662 197.341 38.8018C196.702 39.321 196.003 39.7005 195.244 39.9401C194.486 40.1598 193.747 40.2696 193.028 40.2696ZM205.189 40.2696C204.19 40.2696 203.292 40.0799 202.493 39.7005C201.714 39.3011 201.095 38.7619 200.636 38.0829C200.176 37.404 199.947 36.6451 199.947 35.8064C199.947 34.7281 200.216 33.8794 200.755 33.2603C201.315 32.6413 202.223 32.2019 203.481 31.9423C204.759 31.6827 206.497 31.5529 208.693 31.5529H210.041V33.1405H208.723C207.106 33.1405 205.828 33.2204 204.889 33.3801C203.971 33.5199 203.322 33.7695 202.942 34.129C202.583 34.4884 202.403 34.9976 202.403 35.6566C202.403 36.4754 202.683 37.1444 203.242 37.6636C203.821 38.1828 204.6 38.4424 205.578 38.4424C206.377 38.4424 207.076 38.2527 207.675 37.8733C208.294 37.4938 208.773 36.9746 209.113 36.3156C209.472 35.6566 209.652 34.8978 209.652 34.0391V30.6243C209.652 29.3862 209.402 28.4976 208.903 27.9584C208.404 27.3993 207.585 27.1197 206.447 27.1197C205.748 27.1197 205.049 27.2096 204.35 27.3893C203.651 27.569 202.912 27.8586 202.133 28.258C201.854 28.3977 201.614 28.4477 201.414 28.4077C201.215 28.3478 201.055 28.238 200.935 28.0782C200.815 27.9185 200.745 27.7387 200.726 27.5391C200.706 27.3194 200.745 27.1097 200.845 26.91C200.965 26.7103 201.145 26.5506 201.385 26.4307C202.263 25.9914 203.132 25.6719 203.991 25.4722C204.849 25.2725 205.668 25.1727 206.447 25.1727C207.705 25.1727 208.743 25.3823 209.562 25.8017C210.381 26.2011 210.99 26.8202 211.389 27.6589C211.789 28.4776 211.988 29.536 211.988 30.834V38.9516C211.988 39.351 211.888 39.6605 211.689 39.8802C211.509 40.0998 211.239 40.2097 210.88 40.2097C210.501 40.2097 210.211 40.0998 210.011 39.8802C209.812 39.6605 209.712 39.351 209.712 38.9516V36.6152H209.981C209.822 37.374 209.512 38.023 209.053 38.5622C208.613 39.1014 208.064 39.5207 207.405 39.8203C206.746 40.1198 206.007 40.2696 205.189 40.2696ZM222.331 40.2696C221.192 40.2696 220.234 40.0699 219.455 39.6705C218.696 39.2511 218.127 38.6521 217.748 37.8733C217.368 37.0745 217.179 36.106 217.179 34.9677V27.3294H215.172C214.832 27.3294 214.573 27.2495 214.393 27.0897C214.213 26.91 214.123 26.6704 214.123 26.3708C214.123 26.0713 214.213 25.8416 214.393 25.6819C214.573 25.5221 214.832 25.4423 215.172 25.4423H217.179V21.9975C217.179 21.5981 217.288 21.2986 217.508 21.0989C217.728 20.8792 218.027 20.7694 218.407 20.7694C218.786 20.7694 219.076 20.8792 219.275 21.0989C219.495 21.2986 219.605 21.5981 219.605 21.9975V25.4423H223.379C223.719 25.4423 223.978 25.5221 224.158 25.6819C224.338 25.8416 224.427 26.0713 224.427 26.3708C224.427 26.6704 224.338 26.91 224.158 27.0897C223.978 27.2495 223.719 27.3294 223.379 27.3294H219.605V34.7281C219.605 35.8663 219.844 36.735 220.324 37.3341C220.803 37.9132 221.582 38.2027 222.66 38.2027C223.04 38.2027 223.359 38.1628 223.619 38.0829C223.898 38.0031 224.128 37.9631 224.308 37.9631C224.487 37.9431 224.637 38.0031 224.757 38.1428C224.877 38.2826 224.937 38.5223 224.937 38.8617C224.937 39.1014 224.887 39.321 224.787 39.5207C224.707 39.7204 224.557 39.8602 224.338 39.9401C224.098 40.02 223.778 40.0899 223.379 40.1498C223 40.2296 222.65 40.2696 222.331 40.2696ZM231.571 40.2696C230.133 40.2696 229.034 39.8303 228.276 38.9516C227.517 38.0729 227.137 36.8149 227.137 35.1774V19.9007C227.137 19.5013 227.237 19.2018 227.437 19.0021C227.637 18.7824 227.936 18.6726 228.336 18.6726C228.715 18.6726 229.015 18.7824 229.234 19.0021C229.454 19.2018 229.564 19.5013 229.564 19.9007V34.9976C229.564 36.076 229.773 36.8848 230.193 37.4239C230.632 37.9431 231.271 38.2027 232.11 38.2027C232.29 38.2027 232.449 38.1928 232.589 38.1728C232.729 38.1528 232.869 38.1428 233.008 38.1428C233.228 38.1229 233.378 38.1728 233.458 38.2926C233.558 38.4124 233.607 38.6521 233.607 39.0115C233.607 39.371 233.528 39.6405 233.368 39.8203C233.208 40 232.949 40.1198 232.589 40.1797C232.429 40.1997 232.26 40.2197 232.08 40.2396C231.9 40.2596 231.73 40.2696 231.571 40.2696ZM241.905 40.2696C240.487 40.2696 239.259 39.9601 238.221 39.341C237.183 38.722 236.374 37.8533 235.795 36.735C235.235 35.5967 234.956 34.2588 234.956 32.7211C234.956 31.5629 235.116 30.5245 235.435 29.6059C235.755 28.6673 236.224 27.8685 236.843 27.2096C237.462 26.5506 238.191 26.0513 239.03 25.7118C239.888 25.3524 240.847 25.1727 241.905 25.1727C243.323 25.1727 244.551 25.4822 245.59 26.1013C246.628 26.7203 247.427 27.599 247.986 28.7372C248.565 29.8555 248.855 31.1835 248.855 32.7211C248.855 33.8794 248.695 34.9178 248.375 35.8364C248.056 36.755 247.587 37.5537 246.968 38.2327C246.348 38.8917 245.61 39.4009 244.751 39.7604C243.912 40.0998 242.964 40.2696 241.905 40.2696ZM241.905 38.3226C242.804 38.3226 243.593 38.1029 244.272 37.6636C244.951 37.2242 245.47 36.5852 245.829 35.7465C246.209 34.9078 246.398 33.8993 246.398 32.7211C246.398 30.9039 245.989 29.516 245.17 28.5575C244.372 27.599 243.283 27.1197 241.905 27.1197C240.987 27.1197 240.188 27.3394 239.509 27.7787C238.85 28.198 238.331 28.8271 237.951 29.6658C237.592 30.4845 237.412 31.503 237.412 32.7211C237.412 34.5184 237.822 35.9063 238.64 36.8848C239.459 37.8433 240.547 38.3226 241.905 38.3226ZM257.082 40.2696C256.084 40.2696 255.185 40.0799 254.386 39.7005C253.607 39.3011 252.988 38.7619 252.529 38.0829C252.07 37.404 251.84 36.6451 251.84 35.8064C251.84 34.7281 252.11 33.8794 252.649 33.2603C253.208 32.6413 254.117 32.2019 255.375 31.9423C256.653 31.6827 258.39 31.5529 260.587 31.5529H261.935V33.1405H260.617C258.999 33.1405 257.721 33.2204 256.782 33.3801C255.864 33.5199 255.215 33.7695 254.835 34.129C254.476 34.4884 254.296 34.9976 254.296 35.6566C254.296 36.4754 254.576 37.1444 255.135 37.6636C255.714 38.1828 256.493 38.4424 257.471 38.4424C258.27 38.4424 258.969 38.2527 259.568 37.8733C260.187 37.4938 260.667 36.9746 261.006 36.3156C261.365 35.6566 261.545 34.8978 261.545 34.0391V30.6243C261.545 29.3862 261.296 28.4976 260.796 27.9584C260.297 27.3993 259.478 27.1197 258.34 27.1197C257.641 27.1197 256.942 27.2096 256.243 27.3893C255.544 27.569 254.805 27.8586 254.027 28.258C253.747 28.3977 253.507 28.4477 253.308 28.4077C253.108 28.3478 252.948 28.238 252.829 28.0782C252.709 27.9185 252.639 27.7387 252.619 27.5391C252.599 27.3194 252.639 27.1097 252.739 26.91C252.858 26.7103 253.038 26.5506 253.278 26.4307C254.156 25.9914 255.025 25.6719 255.884 25.4722C256.743 25.2725 257.561 25.1727 258.34 25.1727C259.598 25.1727 260.637 25.3823 261.455 25.8017C262.274 26.2011 262.883 26.8202 263.283 27.6589C263.682 28.4776 263.882 29.536 263.882 30.834V38.9516C263.882 39.351 263.782 39.6605 263.582 39.8802C263.402 40.0998 263.133 40.2097 262.773 40.2097C262.394 40.2097 262.104 40.0998 261.905 39.8802C261.705 39.6605 261.605 39.351 261.605 38.9516V36.6152H261.875C261.715 37.374 261.405 38.023 260.946 38.5622C260.507 39.1014 259.958 39.5207 259.299 39.8203C258.64 40.1198 257.901 40.2696 257.082 40.2696ZM270.36 40.2097C269.98 40.2097 269.681 40.0998 269.461 39.8802C269.262 39.6605 269.162 39.351 269.162 38.9516V27.3294H267.245C266.925 27.3294 266.666 27.2495 266.466 27.0897C266.286 26.91 266.196 26.6704 266.196 26.3708C266.196 26.0713 266.286 25.8416 266.466 25.6819C266.666 25.5221 266.925 25.4423 267.245 25.4423H269.821L269.162 26.0713V24.933C269.162 23.0359 269.621 21.5882 270.54 20.5897C271.478 19.5912 272.846 19.0121 274.643 18.8523L275.512 18.7625C275.792 18.7425 276.011 18.7924 276.171 18.9122C276.351 19.0321 276.461 19.1818 276.501 19.3616C276.56 19.5413 276.57 19.731 276.53 19.9307C276.491 20.1104 276.401 20.2702 276.261 20.41C276.121 20.5497 275.951 20.6296 275.752 20.6496L275.063 20.7095C273.845 20.8093 272.956 21.1788 272.397 21.8178C271.858 22.4568 271.588 23.3954 271.588 24.6335V25.8916L271.229 25.4423H274.823C275.163 25.4423 275.422 25.5221 275.602 25.6819C275.782 25.8416 275.871 26.0713 275.871 26.3708C275.871 26.6704 275.782 26.91 275.602 27.0897C275.422 27.2495 275.163 27.3294 274.823 27.3294H271.588V38.9516C271.588 39.7903 271.179 40.2097 270.36 40.2097ZM281.288 24.7833C281.088 25.0429 280.878 25.1926 280.659 25.2326C280.439 25.2525 280.249 25.2126 280.089 25.1128C279.93 24.9929 279.84 24.8232 279.82 24.6035C279.82 24.3839 279.92 24.1442 280.119 23.8846C280.439 23.4653 280.659 23.0459 280.778 22.6266C280.898 22.1872 280.958 21.7978 280.958 21.4583L281.078 22.0574C280.559 22.0574 280.139 21.9077 279.82 21.6081C279.52 21.2886 279.37 20.8892 279.37 20.41C279.37 19.9107 279.51 19.5113 279.79 19.2118C280.089 18.9122 280.479 18.7625 280.958 18.7625C281.477 18.7625 281.887 18.9422 282.186 19.3016C282.486 19.6411 282.636 20.1404 282.636 20.7994C282.636 21.2187 282.596 21.658 282.516 22.1173C282.436 22.5567 282.296 23.006 282.096 23.4653C281.897 23.9246 281.627 24.3639 281.288 24.7833ZM290.7 40.2696C289.802 40.2696 288.893 40.1598 287.975 39.9401C287.076 39.7204 286.237 39.341 285.458 38.8018C285.259 38.662 285.119 38.5023 285.039 38.3226C284.959 38.1229 284.929 37.9332 284.949 37.7534C284.989 37.5537 285.069 37.384 285.189 37.2442C285.329 37.1044 285.488 37.0245 285.668 37.0046C285.868 36.9646 286.087 37.0046 286.327 37.1244C287.106 37.6037 287.855 37.9431 288.574 38.1428C289.313 38.3226 290.041 38.4124 290.76 38.4124C291.899 38.4124 292.757 38.2027 293.336 37.7834C293.916 37.364 294.205 36.7949 294.205 36.076C294.205 35.5169 294.015 35.0775 293.636 34.758C293.257 34.4185 292.657 34.1589 291.839 33.9792L289.113 33.3801C287.855 33.1205 286.916 32.6712 286.297 32.0322C285.698 31.3932 285.399 30.5644 285.399 29.546C285.399 28.6474 285.628 27.8785 286.087 27.2395C286.567 26.5805 287.236 26.0713 288.094 25.7118C288.953 25.3524 289.952 25.1727 291.09 25.1727C291.968 25.1727 292.797 25.2925 293.576 25.5321C294.375 25.7518 295.094 26.1112 295.733 26.6105C295.932 26.7503 296.062 26.92 296.122 27.1197C296.202 27.2994 296.212 27.4891 296.152 27.6888C296.112 27.8685 296.022 28.0283 295.883 28.1681C295.743 28.2879 295.573 28.3578 295.373 28.3778C295.174 28.3977 294.964 28.3378 294.744 28.198C294.145 27.7987 293.536 27.5091 292.917 27.3294C292.298 27.1297 291.689 27.0298 291.09 27.0298C289.972 27.0298 289.123 27.2495 288.544 27.6888C287.965 28.1282 287.675 28.7073 287.675 29.4262C287.675 29.9853 287.855 30.4446 288.214 30.8041C288.574 31.1635 289.133 31.4231 289.892 31.5829L292.618 32.152C293.916 32.4316 294.884 32.8809 295.523 33.4999C296.182 34.099 296.512 34.9178 296.512 35.9562C296.512 37.2742 295.982 38.3226 294.924 39.1014C293.866 39.8802 292.458 40.2696 290.7 40.2696ZM315.301 40.2696C313.983 40.2696 312.844 39.9301 311.886 39.2511C310.947 38.5722 310.318 37.6636 309.999 36.5253L310.328 36.1958V38.9516C310.328 39.351 310.218 39.6605 309.999 39.8802C309.799 40.0998 309.509 40.2097 309.13 40.2097C308.731 40.2097 308.431 40.0998 308.231 39.8802C308.032 39.6605 307.932 39.351 307.932 38.9516V19.9007C307.932 19.5013 308.032 19.2018 308.231 19.0021C308.431 18.7824 308.731 18.6726 309.13 18.6726C309.509 18.6726 309.809 18.7824 310.029 19.0021C310.248 19.2018 310.358 19.5013 310.358 19.9007V28.8271H309.999C310.338 27.7088 310.977 26.8202 311.916 26.1612C312.854 25.5022 313.983 25.1727 315.301 25.1727C316.619 25.1727 317.757 25.4822 318.715 26.1013C319.674 26.7003 320.413 27.569 320.932 28.7073C321.471 29.8256 321.741 31.1635 321.741 32.7211C321.741 34.2588 321.471 35.5967 320.932 36.735C320.413 37.8533 319.664 38.722 318.685 39.341C317.727 39.9601 316.599 40.2696 315.301 40.2696ZM314.791 38.3226C315.71 38.3226 316.499 38.1029 317.158 37.6636C317.837 37.2242 318.356 36.5852 318.715 35.7465C319.095 34.9078 319.284 33.8993 319.284 32.7211C319.284 30.9039 318.875 29.516 318.056 28.5575C317.258 27.599 316.169 27.1197 314.791 27.1197C313.893 27.1197 313.104 27.3394 312.425 27.7787C311.746 28.198 311.217 28.8271 310.837 29.6658C310.478 30.4845 310.298 31.503 310.298 32.7211C310.298 34.5184 310.708 35.9063 311.526 36.8848C312.345 37.8433 313.433 38.3226 314.791 38.3226ZM329.978 40.2696C328.98 40.2696 328.081 40.0799 327.282 39.7005C326.504 39.3011 325.885 38.7619 325.425 38.0829C324.966 37.404 324.736 36.6451 324.736 35.8064C324.736 34.7281 325.006 33.8794 325.545 33.2603C326.104 32.6413 327.013 32.2019 328.271 31.9423C329.549 31.6827 331.286 31.5529 333.483 31.5529H334.831V33.1405H333.513C331.895 33.1405 330.617 33.2204 329.679 33.3801C328.76 33.5199 328.111 33.7695 327.732 34.129C327.372 34.4884 327.193 34.9976 327.193 35.6566C327.193 36.4754 327.472 37.1444 328.031 37.6636C328.61 38.1828 329.389 38.4424 330.368 38.4424C331.167 38.4424 331.865 38.2527 332.465 37.8733C333.084 37.4938 333.563 36.9746 333.902 36.3156C334.262 35.6566 334.442 34.8978 334.442 34.0391V30.6243C334.442 29.3862 334.192 28.4976 333.693 27.9584C333.193 27.3993 332.375 27.1197 331.236 27.1197C330.538 27.1197 329.839 27.2096 329.14 27.3893C328.441 27.569 327.702 27.8586 326.923 28.258C326.643 28.3977 326.404 28.4477 326.204 28.4077C326.004 28.3478 325.845 28.238 325.725 28.0782C325.605 27.9185 325.535 27.7387 325.515 27.5391C325.495 27.3194 325.535 27.1097 325.635 26.91C325.755 26.7103 325.935 26.5506 326.174 26.4307C327.053 25.9914 327.922 25.6719 328.78 25.4722C329.639 25.2725 330.458 25.1727 331.236 25.1727C332.495 25.1727 333.533 25.3823 334.352 25.8017C335.17 26.2011 335.779 26.8202 336.179 27.6589C336.578 28.4776 336.778 29.536 336.778 30.834V38.9516C336.778 39.351 336.678 39.6605 336.478 39.8802C336.299 40.0998 336.029 40.2097 335.67 40.2097C335.29 40.2097 335.001 40.0998 334.801 39.8802C334.601 39.6605 334.501 39.351 334.501 38.9516V36.6152H334.771C334.611 37.374 334.302 38.023 333.842 38.5622C333.403 39.1014 332.854 39.5207 332.195 39.8203C331.536 40.1198 330.797 40.2696 329.978 40.2696ZM342.477 40.2097C342.078 40.2097 341.779 40.0998 341.579 39.8802C341.379 39.6605 341.279 39.351 341.279 38.9516V19.9007C341.279 19.5013 341.379 19.2018 341.579 19.0021C341.779 18.7824 342.078 18.6726 342.477 18.6726C342.857 18.6726 343.156 18.7824 343.376 19.0021C343.596 19.2018 343.706 19.5013 343.706 19.9007V31.9124H343.765L349.906 26.0413C350.186 25.7817 350.425 25.582 350.625 25.4423C350.845 25.3025 351.134 25.2326 351.494 25.2326C351.813 25.2326 352.063 25.3224 352.243 25.5022C352.422 25.6619 352.502 25.8716 352.482 26.1312C352.482 26.3708 352.362 26.6304 352.123 26.91L345.593 33.1105V31.7925L352.692 38.4723C352.971 38.7519 353.111 39.0215 353.111 39.2811C353.111 39.5407 353.011 39.7604 352.812 39.9401C352.632 40.1198 352.392 40.2097 352.093 40.2097C351.733 40.2097 351.444 40.1398 351.224 40C351.004 39.8402 350.735 39.6106 350.415 39.3111L343.765 33.1704H343.706V38.9516C343.706 39.7903 343.296 40.2097 342.477 40.2097ZM362.436 40.2696C360.898 40.2696 359.57 39.97 358.452 39.371C357.354 38.7519 356.495 37.8832 355.876 36.7649C355.277 35.6467 354.977 34.3087 354.977 32.7511C354.977 31.2334 355.277 29.9154 355.876 28.7971C356.475 27.6589 357.294 26.7702 358.332 26.1312C359.391 25.4922 360.609 25.1727 361.987 25.1727C362.965 25.1727 363.844 25.3424 364.623 25.6819C365.402 26.0014 366.061 26.4707 366.6 27.0897C367.159 27.7088 367.578 28.4576 367.858 29.3363C368.157 30.215 368.307 31.2034 368.307 32.3018C368.307 32.6213 368.217 32.8609 368.038 33.0207C367.858 33.1605 367.598 33.2304 367.259 33.2304H356.835V31.6428H366.69L366.21 32.0322C366.21 30.9538 366.051 30.0452 365.731 29.3063C365.412 28.5475 364.942 27.9684 364.323 27.569C363.724 27.1696 362.965 26.9699 362.047 26.9699C361.028 26.9699 360.16 27.2096 359.441 27.6888C358.742 28.1481 358.213 28.7971 357.853 29.6358C357.494 30.4546 357.314 31.4131 357.314 32.5114V32.6912C357.314 34.5284 357.753 35.9262 358.632 36.8848C359.531 37.8433 360.799 38.3226 362.436 38.3226C363.115 38.3226 363.784 38.2327 364.443 38.053C365.122 37.8733 365.781 37.5737 366.42 37.1544C366.7 36.9746 366.949 36.8947 367.169 36.9147C367.408 36.9147 367.598 36.9846 367.738 37.1244C367.878 37.2442 367.968 37.404 368.008 37.6037C368.067 37.7834 368.047 37.9831 367.948 38.2027C367.868 38.4224 367.698 38.6121 367.438 38.7719C366.779 39.2511 366.001 39.6206 365.102 39.8802C364.203 40.1398 363.315 40.2696 362.436 40.2696ZM373.047 40.2097C372.647 40.2097 372.338 40.0998 372.118 39.8802C371.918 39.6605 371.819 39.351 371.819 38.9516V26.4607C371.819 26.0613 371.918 25.7618 372.118 25.5621C372.318 25.3424 372.607 25.2326 372.987 25.2326C373.366 25.2326 373.656 25.3424 373.855 25.5621C374.075 25.7618 374.185 26.0613 374.185 26.4607V28.887H373.885C374.205 27.7088 374.814 26.8002 375.713 26.1612C376.611 25.5221 377.719 25.1827 379.037 25.1427C379.337 25.1227 379.577 25.1926 379.756 25.3524C379.936 25.4922 380.036 25.7418 380.056 26.1013C380.076 26.4407 379.996 26.7103 379.816 26.91C379.637 27.1097 379.357 27.2295 378.978 27.2695L378.498 27.3294C377.14 27.4492 376.092 27.8885 375.353 28.6474C374.634 29.3862 374.275 30.4047 374.275 31.7027V38.9516C374.275 39.351 374.165 39.6605 373.945 39.8802C373.746 40.0998 373.446 40.2097 373.047 40.2097ZM386.696 45.6014C386.396 45.6014 386.157 45.5216 385.977 45.3618C385.797 45.202 385.687 44.9824 385.648 44.7028C385.628 44.4432 385.677 44.1736 385.797 43.894L387.864 39.2511V40.2995L382.113 26.94C381.993 26.6404 381.953 26.3609 381.993 26.1013C382.033 25.8416 382.153 25.632 382.353 25.4722C382.552 25.3125 382.832 25.2326 383.191 25.2326C383.511 25.2326 383.76 25.3025 383.94 25.4423C384.12 25.582 384.28 25.8317 384.419 26.1911L389.332 38.2327H388.523L393.496 26.1911C393.655 25.8317 393.825 25.582 394.005 25.4423C394.184 25.3025 394.444 25.2326 394.784 25.2326C395.103 25.2326 395.343 25.3125 395.502 25.4722C395.682 25.632 395.782 25.8416 395.802 26.1013C395.842 26.3409 395.802 26.6105 395.682 26.91L388.014 44.6429C387.854 45.0024 387.674 45.252 387.475 45.3918C387.295 45.5315 387.035 45.6014 386.696 45.6014Z" fill="white"/>
</svg>
