<svg width="422" height="62" viewBox="0 0 422 62" fill="none" xmlns="http://www.w3.org/2000/svg">
<path d="M13.8533 21.6393C14.6394 19.4775 16.0828 17.3995 17.5169 15.6257C18.5124 14.3944 19.9915 12.9823 21.669 12.8532C22.0003 12.8278 22.229 12.9606 22.4876 13.1635C23.2647 13.7734 23.849 14.5519 24.3095 15.4211C24.9522 16.6344 25.4049 17.9396 26.0126 19.1705C26.1795 19.5088 26.3503 19.8652 26.5604 20.1805C26.6966 20.3848 27.1529 20.9987 27.3205 21.1105M42.1325 20.2135C43.1807 18.6412 44.0928 16.9881 45.2285 15.4739C45.8603 14.6314 46.523 13.798 47.2814 13.0645C47.7975 12.5653 48.3333 12.2191 49.0637 12.1601C50.7678 12.0224 51.7506 14.3103 52.3445 15.5267C52.8072 16.4745 53.2254 17.4404 53.6515 18.4048C54.0489 19.3043 54.5554 20.1006 55.0839 20.9264M29.894 21.5205C29.8734 21.5205 30.3843 21.466 30.4617 21.4545C31.3872 21.3166 32.3155 21.2217 33.2474 21.1376C35.4664 20.9373 37.7731 20.6926 39.9938 20.9264M12.5463 26.6297C11.6051 29.8367 11.1295 33.1251 10.8432 36.4522C10.5956 39.3287 10.2878 42.5734 12.2162 44.9676C14.7579 48.1235 19.2087 48.2771 22.8836 47.5421M26.6859 47.7797H42.9642M55.3083 39.1879C55.3083 37.1833 55.213 35.4867 55.2027 33.4817C55.1894 30.9162 55.0427 28.3606 54.965 25.798M57.4603 21.0452C59.3661 20.105 61.363 19.4449 63.3485 18.6952C65.1686 18.008 66.9398 17.4958 68.8096 16.9616V16.3689M27.3205 21.0452C29.2263 20.105 31.2232 19.4449 33.2087 18.6952C35.0288 18.008 36.8 17.4958 38.6698 16.9616M55.1775 16.3689H68.8096M68.8096 16.3689H69.106C71.4768 28.8156 70.8841 40.3733 70.2914 43.0404C69.6987 45.7076 67.0315 46.5967 61.1045 48.0784C55.1775 49.5602 47.4723 49.5602 47.4723 46.3003C47.4723 43.0404 53.3994 43.0404 59.6227 41.5587C64.6014 40.3733 65.2534 40.0769 65.2534 38.0025M35.0256 37.3135C34.8287 38.4946 34.5335 39.6758 31.8759 38.0025C29.8286 39.971 29.6121 38.3634 29.7105 37.3135M20.8008 36.0595H20.8173M43.9327 36.0595H43.9493" stroke="white" stroke-width="2.5" stroke-linecap="round" stroke-linejoin="round"/>
<path d="M90.6492 40.365C89.319 40.365 88.1701 40.0224 87.2027 39.3371C86.2554 38.6518 85.6205 37.7348 85.2981 36.5859L85.6306 36.2534V39.0348C85.6306 39.4379 85.5198 39.7503 85.2981 39.972C85.0965 40.1937 84.8043 40.3045 84.4213 40.3045C84.0182 40.3045 83.7159 40.1937 83.5144 39.972C83.3128 39.7503 83.212 39.4379 83.212 39.0348V19.807C83.212 19.4039 83.3128 19.1015 83.5144 18.9C83.7159 18.6783 84.0182 18.5674 84.4213 18.5674C84.8043 18.5674 85.1066 18.6783 85.3283 18.9C85.55 19.1015 85.6609 19.4039 85.6609 19.807V28.8162H85.2981C85.6407 27.6875 86.2857 26.7906 87.2329 26.1255C88.1802 25.4604 89.319 25.1279 90.6492 25.1279C91.9794 25.1279 93.1283 25.4403 94.0957 26.0651C95.0631 26.6697 95.8089 27.5465 96.3329 28.6953C96.8771 29.824 97.1492 31.1743 97.1492 32.7464C97.1492 34.2984 96.8771 35.6487 96.3329 36.7976C95.8089 37.9262 95.053 38.803 94.0655 39.4278C93.098 40.0526 91.9593 40.365 90.6492 40.365ZM90.1352 38.3999C91.0624 38.3999 91.8585 38.1782 92.5236 37.7348C93.2089 37.2914 93.7329 36.6464 94.0957 35.7999C94.4786 34.9534 94.6701 33.9356 94.6701 32.7464C94.6701 30.9123 94.2569 29.5116 93.4306 28.5441C92.6244 27.5767 91.5259 27.093 90.1352 27.093C89.2283 27.093 88.4322 27.3147 87.7469 27.7581C87.0616 28.1813 86.5275 28.8162 86.1446 29.6627C85.7818 30.4891 85.6004 31.517 85.6004 32.7464C85.6004 34.5604 86.0136 35.9611 86.8399 36.9487C87.6663 37.9162 88.7647 38.3999 90.1352 38.3999ZM106.038 40.365C104.849 40.365 103.861 40.1534 103.075 39.7301C102.309 39.2867 101.725 38.6317 101.321 37.765C100.939 36.8983 100.747 35.8201 100.747 34.5301V26.4279C100.747 26.0046 100.848 25.6922 101.049 25.4907C101.271 25.2891 101.573 25.1883 101.956 25.1883C102.359 25.1883 102.662 25.2891 102.863 25.4907C103.085 25.6922 103.196 26.0046 103.196 26.4279V34.4999C103.196 35.7898 103.458 36.7573 103.982 37.4022C104.526 38.027 105.373 38.3394 106.521 38.3394C107.771 38.3394 108.789 37.9162 109.575 37.0697C110.361 36.2231 110.754 35.1146 110.754 33.7441V26.4279C110.754 26.0046 110.855 25.6922 111.056 25.4907C111.278 25.2891 111.59 25.1883 111.994 25.1883C112.376 25.1883 112.669 25.2891 112.87 25.4907C113.092 25.6922 113.203 26.0046 113.203 26.4279V39.0348C113.203 39.8813 112.81 40.3045 112.024 40.3045C111.641 40.3045 111.338 40.1937 111.117 39.972C110.915 39.7503 110.814 39.4379 110.814 39.0348V36.2836L111.207 36.7069C110.804 37.896 110.139 38.803 109.212 39.4278C108.305 40.0526 107.247 40.365 106.038 40.365ZM123.68 40.365C122.531 40.365 121.563 40.1634 120.777 39.7603C120.012 39.3371 119.437 38.7324 119.054 37.9464C118.671 37.1402 118.48 36.1627 118.48 35.0139V27.3046H116.454C116.112 27.3046 115.85 27.224 115.668 27.0627C115.487 26.8813 115.396 26.6395 115.396 26.3372C115.396 26.0348 115.487 25.8031 115.668 25.6418C115.85 25.4806 116.112 25.4 116.454 25.4H118.48V21.9232C118.48 21.5201 118.591 21.2178 118.812 21.0163C119.034 20.7946 119.336 20.6837 119.719 20.6837C120.102 20.6837 120.394 20.7946 120.596 21.0163C120.818 21.2178 120.929 21.5201 120.929 21.9232V25.4H124.738C125.081 25.4 125.343 25.4806 125.524 25.6418C125.705 25.8031 125.796 26.0348 125.796 26.3372C125.796 26.6395 125.705 26.8813 125.524 27.0627C125.343 27.224 125.081 27.3046 124.738 27.3046H120.929V34.772C120.929 35.9208 121.17 36.7976 121.654 37.4022C122.138 37.9867 122.924 38.279 124.012 38.279C124.395 38.279 124.718 38.2386 124.98 38.158C125.262 38.0774 125.494 38.0371 125.675 38.0371C125.856 38.0169 126.008 38.0774 126.129 38.2185C126.249 38.3596 126.31 38.6014 126.31 38.9441C126.31 39.1859 126.26 39.4076 126.159 39.6092C126.078 39.8107 125.927 39.9518 125.705 40.0324C125.463 40.1131 125.141 40.1836 124.738 40.2441C124.355 40.3247 124.002 40.365 123.68 40.365ZM133.865 40.365C132.717 40.365 131.749 40.1634 130.963 39.7603C130.197 39.3371 129.623 38.7324 129.24 37.9464C128.857 37.1402 128.665 36.1627 128.665 35.0139V27.3046H126.64C126.297 27.3046 126.035 27.224 125.854 27.0627C125.672 26.8813 125.582 26.6395 125.582 26.3372C125.582 26.0348 125.672 25.8031 125.854 25.6418C126.035 25.4806 126.297 25.4 126.64 25.4H128.665V21.9232C128.665 21.5201 128.776 21.2178 128.998 21.0163C129.22 20.7946 129.522 20.6837 129.905 20.6837C130.288 20.6837 130.58 20.7946 130.782 21.0163C131.003 21.2178 131.114 21.5201 131.114 21.9232V25.4H134.924C135.266 25.4 135.528 25.4806 135.71 25.6418C135.891 25.8031 135.982 26.0348 135.982 26.3372C135.982 26.6395 135.891 26.8813 135.71 27.0627C135.528 27.224 135.266 27.3046 134.924 27.3046H131.114V34.772C131.114 35.9208 131.356 36.7976 131.84 37.4022C132.324 37.9867 133.11 38.279 134.198 38.279C134.581 38.279 134.903 38.2386 135.165 38.158C135.448 38.0774 135.679 38.0371 135.861 38.0371C136.042 38.0169 136.193 38.0774 136.314 38.2185C136.435 38.3596 136.496 38.6014 136.496 38.9441C136.496 39.1859 136.445 39.4076 136.345 39.6092C136.264 39.8107 136.113 39.9518 135.891 40.0324C135.649 40.1131 135.327 40.1836 134.924 40.2441C134.541 40.3247 134.188 40.365 133.865 40.365ZM145.013 40.365C143.461 40.365 142.121 40.0627 140.992 39.458C139.884 38.8332 139.017 37.9565 138.392 36.8278C137.787 35.6991 137.485 34.3487 137.485 32.7767C137.485 31.2449 137.787 29.9147 138.392 28.786C138.997 27.6372 139.823 26.7403 140.871 26.0953C141.939 25.4503 143.169 25.1279 144.559 25.1279C145.547 25.1279 146.434 25.2992 147.22 25.6418C148.006 25.9643 148.671 26.4379 149.215 27.0627C149.78 27.6875 150.203 28.4433 150.485 29.3302C150.787 30.217 150.938 31.2147 150.938 32.3232C150.938 32.6457 150.848 32.8875 150.666 33.0487C150.485 33.1898 150.223 33.2604 149.88 33.2604H139.359V31.6581H149.306L148.822 32.0511C148.822 30.9627 148.661 30.0457 148.339 29.2999C148.016 28.534 147.542 27.9496 146.918 27.5465C146.313 27.1434 145.547 26.9418 144.62 26.9418C143.592 26.9418 142.715 27.1837 141.99 27.6674C141.284 28.1309 140.75 28.786 140.387 29.6325C140.025 30.4588 139.843 31.4263 139.843 32.5348V32.7162C139.843 34.5704 140.287 35.9813 141.173 36.9487C142.08 37.9162 143.36 38.3999 145.013 38.3999C145.698 38.3999 146.373 38.3092 147.039 38.1278C147.724 37.9464 148.389 37.6441 149.034 37.2208C149.316 37.0394 149.568 36.9588 149.79 36.979C150.032 36.979 150.223 37.0495 150.364 37.1906C150.505 37.3115 150.596 37.4728 150.636 37.6743C150.697 37.8557 150.676 38.0572 150.576 38.279C150.495 38.5007 150.324 38.6921 150.062 38.8534C149.397 39.3371 148.611 39.71 147.704 39.972C146.797 40.234 145.9 40.365 145.013 40.365ZM155.722 40.3045C155.319 40.3045 155.007 40.1937 154.785 39.972C154.583 39.7503 154.483 39.4379 154.483 39.0348V26.4279C154.483 26.0248 154.583 25.7224 154.785 25.5209C154.986 25.2992 155.279 25.1883 155.662 25.1883C156.045 25.1883 156.337 25.2992 156.538 25.5209C156.76 25.7224 156.871 26.0248 156.871 26.4279V28.8767H156.569C156.891 27.6875 157.506 26.7705 158.413 26.1255C159.32 25.4806 160.438 25.1379 161.769 25.0976C162.071 25.0775 162.313 25.148 162.494 25.3093C162.676 25.4503 162.776 25.7023 162.796 26.0651C162.817 26.4077 162.736 26.6798 162.555 26.8813C162.373 27.0829 162.091 27.2038 161.708 27.2441L161.224 27.3046C159.854 27.4255 158.796 27.8689 158.05 28.6348C157.324 29.3806 156.962 30.4085 156.962 31.7185V39.0348C156.962 39.4379 156.851 39.7503 156.629 39.972C156.427 40.1937 156.125 40.3045 155.722 40.3045ZM171.762 40.365C170.21 40.365 168.869 40.0627 167.741 39.458C166.632 38.8332 165.765 37.9565 165.141 36.8278C164.536 35.6991 164.234 34.3487 164.234 32.7767C164.234 31.2449 164.536 29.9147 165.141 28.786C165.745 27.6372 166.572 26.7403 167.62 26.0953C168.688 25.4503 169.917 25.1279 171.308 25.1279C172.296 25.1279 173.182 25.2992 173.968 25.6418C174.755 25.9643 175.42 26.4379 175.964 27.0627C176.528 27.6875 176.951 28.4433 177.234 29.3302C177.536 30.217 177.687 31.2147 177.687 32.3232C177.687 32.6457 177.596 32.8875 177.415 33.0487C177.234 33.1898 176.972 33.2604 176.629 33.2604H166.108V31.6581H176.055L175.571 32.0511C175.571 30.9627 175.41 30.0457 175.087 29.2999C174.765 28.534 174.291 27.9496 173.666 27.5465C173.062 27.1434 172.296 26.9418 171.368 26.9418C170.341 26.9418 169.464 27.1837 168.738 27.6674C168.033 28.1309 167.499 28.786 167.136 29.6325C166.773 30.4588 166.592 31.4263 166.592 32.5348V32.7162C166.592 34.5704 167.035 35.9813 167.922 36.9487C168.829 37.9162 170.109 38.3999 171.762 38.3999C172.447 38.3999 173.122 38.3092 173.787 38.1278C174.472 37.9464 175.137 37.6441 175.782 37.2208C176.065 37.0394 176.317 36.9588 176.538 36.979C176.78 36.979 176.972 37.0495 177.113 37.1906C177.254 37.3115 177.344 37.4728 177.385 37.6743C177.445 37.8557 177.425 38.0572 177.324 38.279C177.244 38.5007 177.072 38.6921 176.81 38.8534C176.145 39.3371 175.359 39.71 174.452 39.972C173.545 40.234 172.648 40.365 171.762 40.365ZM186.824 40.365C185.514 40.365 184.365 40.0526 183.378 39.4278C182.41 38.803 181.654 37.9262 181.11 36.7976C180.586 35.6487 180.324 34.2984 180.324 32.7464C180.324 31.1743 180.586 29.824 181.11 28.6953C181.654 27.5465 182.41 26.6697 183.378 26.0651C184.365 25.4403 185.514 25.1279 186.824 25.1279C188.154 25.1279 189.293 25.4604 190.24 26.1255C191.188 26.7906 191.823 27.6875 192.145 28.8162H191.812V19.807C191.812 19.4039 191.913 19.1015 192.115 18.9C192.336 18.6783 192.649 18.5674 193.052 18.5674C193.435 18.5674 193.727 18.6783 193.929 18.9C194.15 19.1015 194.261 19.4039 194.261 19.807V39.0348C194.261 39.4379 194.16 39.7503 193.959 39.972C193.757 40.1937 193.455 40.3045 193.052 40.3045C192.669 40.3045 192.367 40.1937 192.145 39.972C191.943 39.7503 191.843 39.4379 191.843 39.0348V36.1627L192.175 36.5859C191.853 37.7348 191.208 38.6518 190.24 39.3371C189.293 40.0224 188.154 40.365 186.824 40.365ZM187.338 38.3999C188.245 38.3999 189.041 38.1782 189.726 37.7348C190.412 37.2914 190.936 36.6464 191.298 35.7999C191.681 34.9534 191.873 33.9356 191.873 32.7464C191.873 30.9123 191.46 29.5116 190.633 28.5441C189.827 27.5767 188.729 27.093 187.338 27.093C186.411 27.093 185.605 27.3147 184.919 27.7581C184.254 28.1813 183.73 28.8162 183.347 29.6627C182.985 30.4891 182.803 31.517 182.803 32.7464C182.803 34.5604 183.216 35.9611 184.043 36.9487C184.869 37.9162 185.968 38.3999 187.338 38.3999ZM205.085 40.365C203.613 40.365 202.344 40.0425 201.275 39.3976C200.207 38.7526 199.381 37.8557 198.796 36.7069C198.232 35.5379 197.95 34.1875 197.95 32.6557C197.95 31.4867 198.111 30.4387 198.434 29.5116C198.756 28.5844 199.23 27.7984 199.854 27.1534C200.479 26.4883 201.225 25.9844 202.092 25.6418C202.979 25.2992 203.976 25.1279 205.085 25.1279C205.81 25.1279 206.566 25.2387 207.352 25.4604C208.138 25.6821 208.854 26.0651 209.499 26.6092C209.7 26.7503 209.831 26.9217 209.892 27.1232C209.952 27.3247 209.952 27.5263 209.892 27.7278C209.831 27.9092 209.73 28.0705 209.589 28.2116C209.448 28.3325 209.267 28.403 209.045 28.4232C208.844 28.4433 208.632 28.3728 208.41 28.2116C207.886 27.8085 207.352 27.5263 206.808 27.3651C206.264 27.2038 205.74 27.1232 205.236 27.1232C204.45 27.1232 203.765 27.2542 203.18 27.5162C202.596 27.7581 202.102 28.1108 201.699 28.5744C201.296 29.0379 200.983 29.6123 200.761 30.2976C200.56 30.9829 200.459 31.779 200.459 32.686C200.459 34.4394 200.872 35.8301 201.699 36.858C202.525 37.8658 203.704 38.3696 205.236 38.3696C205.74 38.3696 206.254 38.289 206.778 38.1278C207.322 37.9666 207.866 37.6844 208.41 37.2813C208.632 37.12 208.844 37.0495 209.045 37.0697C209.247 37.0898 209.418 37.1704 209.559 37.3115C209.7 37.4324 209.791 37.5937 209.831 37.7952C209.892 37.9968 209.892 38.1983 209.831 38.3999C209.771 38.5813 209.64 38.7425 209.438 38.8836C208.793 39.4076 208.088 39.7906 207.322 40.0324C206.556 40.2541 205.81 40.365 205.085 40.365ZM217.359 40.365C216.351 40.365 215.444 40.1735 214.638 39.7906C213.852 39.3875 213.227 38.8433 212.763 38.158C212.3 37.4728 212.068 36.7069 212.068 35.8604C212.068 34.772 212.34 33.9154 212.884 33.2906C213.449 32.6658 214.366 32.2224 215.635 31.9604C216.925 31.6984 218.679 31.5674 220.896 31.5674H222.256V33.1697H220.926C219.293 33.1697 218.004 33.2503 217.056 33.4115C216.129 33.5526 215.474 33.8046 215.091 34.1673C214.728 34.5301 214.547 35.0441 214.547 35.7092C214.547 36.5356 214.829 37.2107 215.393 37.7348C215.978 38.2588 216.764 38.5208 217.752 38.5208C218.558 38.5208 219.263 38.3293 219.868 37.9464C220.493 37.5635 220.976 37.0394 221.319 36.3743C221.682 35.7092 221.863 34.9433 221.863 34.0766V30.6302C221.863 29.3806 221.611 28.4837 221.107 27.9395C220.604 27.3751 219.777 27.093 218.628 27.093C217.923 27.093 217.217 27.1837 216.512 27.3651C215.807 27.5465 215.061 27.8387 214.275 28.2418C213.993 28.3829 213.751 28.4333 213.549 28.393C213.348 28.3325 213.186 28.2216 213.066 28.0604C212.945 27.8992 212.874 27.7178 212.854 27.5162C212.834 27.2945 212.874 27.0829 212.975 26.8813C213.096 26.6798 213.277 26.5186 213.519 26.3976C214.406 25.9542 215.283 25.6317 216.149 25.4302C217.016 25.2286 217.842 25.1279 218.628 25.1279C219.898 25.1279 220.946 25.3395 221.772 25.7627C222.599 26.1658 223.214 26.7906 223.617 27.6372C224.02 28.4635 224.221 29.5317 224.221 30.8418V39.0348C224.221 39.4379 224.121 39.7503 223.919 39.972C223.738 40.1937 223.466 40.3045 223.103 40.3045C222.72 40.3045 222.428 40.1937 222.226 39.972C222.024 39.7503 221.924 39.4379 221.924 39.0348V36.6766H222.196C222.035 37.4425 221.722 38.0976 221.259 38.6417C220.815 39.1859 220.261 39.6092 219.596 39.9115C218.931 40.2138 218.185 40.365 217.359 40.365ZM234.66 40.365C233.511 40.365 232.543 40.1634 231.757 39.7603C230.992 39.3371 230.417 38.7324 230.034 37.9464C229.651 37.1402 229.46 36.1627 229.46 35.0139V27.3046H227.434C227.092 27.3046 226.83 27.224 226.648 27.0627C226.467 26.8813 226.376 26.6395 226.376 26.3372C226.376 26.0348 226.467 25.8031 226.648 25.6418C226.83 25.4806 227.092 25.4 227.434 25.4H229.46V21.9232C229.46 21.5201 229.571 21.2178 229.792 21.0163C230.014 20.7946 230.316 20.6837 230.699 20.6837C231.082 20.6837 231.375 20.7946 231.576 21.0163C231.798 21.2178 231.909 21.5201 231.909 21.9232V25.4H235.718C236.061 25.4 236.323 25.4806 236.504 25.6418C236.685 25.8031 236.776 26.0348 236.776 26.3372C236.776 26.6395 236.685 26.8813 236.504 27.0627C236.323 27.224 236.061 27.3046 235.718 27.3046H231.909V34.772C231.909 35.9208 232.15 36.7976 232.634 37.4022C233.118 37.9867 233.904 38.279 234.992 38.279C235.375 38.279 235.698 38.2386 235.96 38.158C236.242 38.0774 236.474 38.0371 236.655 38.0371C236.836 38.0169 236.988 38.0774 237.109 38.2185C237.23 38.3596 237.29 38.6014 237.29 38.9441C237.29 39.1859 237.24 39.4076 237.139 39.6092C237.058 39.8107 236.907 39.9518 236.685 40.0324C236.443 40.1131 236.121 40.1836 235.718 40.2441C235.335 40.3247 234.982 40.365 234.66 40.365ZM243.986 40.365C242.534 40.365 241.426 39.9216 240.66 39.0348C239.894 38.1479 239.511 36.8782 239.511 35.2255V19.807C239.511 19.4039 239.612 19.1015 239.813 18.9C240.015 18.6783 240.317 18.5674 240.72 18.5674C241.103 18.5674 241.406 18.6783 241.627 18.9C241.849 19.1015 241.96 19.4039 241.96 19.807V35.0441C241.96 36.1325 242.172 36.9487 242.595 37.4929C243.038 38.0169 243.683 38.279 244.53 38.279C244.711 38.279 244.872 38.2689 245.013 38.2487C245.154 38.2286 245.296 38.2185 245.437 38.2185C245.658 38.1983 245.81 38.2487 245.89 38.3696C245.991 38.4906 246.041 38.7324 246.041 39.0952C246.041 39.458 245.961 39.7301 245.799 39.9115C245.638 40.0929 245.376 40.2138 245.013 40.2743C244.852 40.2944 244.681 40.3146 244.499 40.3348C244.318 40.3549 244.147 40.365 243.986 40.365ZM254.416 40.365C252.985 40.365 251.746 40.0526 250.698 39.4278C249.65 38.803 248.833 37.9262 248.249 36.7976C247.684 35.6487 247.402 34.2984 247.402 32.7464C247.402 31.5774 247.563 30.5294 247.886 29.6023C248.208 28.655 248.682 27.8488 249.307 27.1837C249.932 26.5186 250.667 26.0147 251.514 25.672C252.381 25.3093 253.348 25.1279 254.416 25.1279C255.847 25.1279 257.087 25.4403 258.135 26.0651C259.183 26.6899 259.989 27.5767 260.553 28.7255C261.138 29.8542 261.43 31.1945 261.43 32.7464C261.43 33.9154 261.269 34.9635 260.946 35.8906C260.624 36.8177 260.15 37.6239 259.525 38.3092C258.901 38.9743 258.155 39.4882 257.288 39.851C256.442 40.1937 255.484 40.365 254.416 40.365ZM254.416 38.3999C255.323 38.3999 256.119 38.1782 256.805 37.7348C257.49 37.2914 258.014 36.6464 258.377 35.7999C258.76 34.9534 258.951 33.9356 258.951 32.7464C258.951 30.9123 258.538 29.5116 257.711 28.5441C256.905 27.5767 255.807 27.093 254.416 27.093C253.489 27.093 252.683 27.3147 251.998 27.7581C251.332 28.1813 250.808 28.8162 250.425 29.6627C250.063 30.4891 249.881 31.517 249.881 32.7464C249.881 34.5604 250.294 35.9611 251.121 36.9487C251.947 37.9162 253.046 38.3999 254.416 38.3999ZM269.734 40.365C268.726 40.365 267.819 40.1735 267.013 39.7906C266.227 39.3875 265.602 38.8433 265.139 38.158C264.675 37.4728 264.443 36.7069 264.443 35.8604C264.443 34.772 264.715 33.9154 265.259 33.2906C265.824 32.6658 266.741 32.2224 268.011 31.9604C269.3 31.6984 271.054 31.5674 273.271 31.5674H274.631V33.1697H273.301C271.669 33.1697 270.379 33.2503 269.432 33.4115C268.504 33.5526 267.849 33.8046 267.466 34.1673C267.104 34.5301 266.922 35.0441 266.922 35.7092C266.922 36.5356 267.204 37.2107 267.769 37.7348C268.353 38.2588 269.139 38.5208 270.127 38.5208C270.933 38.5208 271.638 38.3293 272.243 37.9464C272.868 37.5635 273.352 37.0394 273.694 36.3743C274.057 35.7092 274.238 34.9433 274.238 34.0766V30.6302C274.238 29.3806 273.987 28.4837 273.483 27.9395C272.979 27.3751 272.152 27.093 271.004 27.093C270.298 27.093 269.593 27.1837 268.887 27.3651C268.182 27.5465 267.436 27.8387 266.65 28.2418C266.368 28.3829 266.126 28.4333 265.925 28.393C265.723 28.3325 265.562 28.2216 265.441 28.0604C265.32 27.8992 265.249 27.7178 265.229 27.5162C265.209 27.2945 265.249 27.0829 265.35 26.8813C265.471 26.6798 265.652 26.5186 265.894 26.3976C266.781 25.9542 267.658 25.6317 268.525 25.4302C269.391 25.2286 270.218 25.1279 271.004 25.1279C272.273 25.1279 273.321 25.3395 274.148 25.7627C274.974 26.1658 275.589 26.7906 275.992 27.6372C276.395 28.4635 276.597 29.5317 276.597 30.8418V39.0348C276.597 39.4379 276.496 39.7503 276.294 39.972C276.113 40.1937 275.841 40.3045 275.478 40.3045C275.095 40.3045 274.803 40.1937 274.601 39.972C274.4 39.7503 274.299 39.4379 274.299 39.0348V36.6766H274.571C274.41 37.4425 274.097 38.0976 273.634 38.6417C273.19 39.1859 272.636 39.6092 271.971 39.9115C271.306 40.2138 270.56 40.365 269.734 40.365ZM283.135 40.3045C282.752 40.3045 282.45 40.1937 282.228 39.972C282.027 39.7503 281.926 39.4379 281.926 39.0348V27.3046H279.991C279.668 27.3046 279.406 27.224 279.205 27.0627C279.023 26.8813 278.933 26.6395 278.933 26.3372C278.933 26.0348 279.023 25.8031 279.205 25.6418C279.406 25.4806 279.668 25.4 279.991 25.4H282.591L281.926 26.0348V24.886C281.926 22.9713 282.389 21.5101 283.316 20.5023C284.264 19.4946 285.644 18.9101 287.458 18.7488L288.335 18.6581C288.617 18.638 288.839 18.6884 289 18.8093C289.182 18.9302 289.292 19.0814 289.333 19.2628C289.393 19.4442 289.403 19.6356 289.363 19.8372C289.323 20.0186 289.232 20.1798 289.091 20.3209C288.95 20.462 288.778 20.5426 288.577 20.5628L287.882 20.6232C286.652 20.724 285.755 21.0969 285.191 21.7418C284.647 22.3868 284.375 23.3341 284.375 24.5837V25.8534L284.012 25.4H287.64C287.982 25.4 288.244 25.4806 288.426 25.6418C288.607 25.8031 288.698 26.0348 288.698 26.3372C288.698 26.6395 288.607 26.8813 288.426 27.0627C288.244 27.224 287.982 27.3046 287.64 27.3046H284.375V39.0348C284.375 39.8813 283.961 40.3045 283.135 40.3045ZM294.164 24.7348C293.963 24.9969 293.751 25.148 293.529 25.1883C293.308 25.2085 293.116 25.1682 292.955 25.0674C292.794 24.9465 292.703 24.7752 292.683 24.5534C292.683 24.3317 292.784 24.0899 292.985 23.8279C293.308 23.4046 293.529 22.9814 293.65 22.5581C293.771 22.1147 293.832 21.7217 293.832 21.379L293.953 21.9837C293.429 21.9837 293.005 21.8325 292.683 21.5302C292.38 21.2077 292.229 20.8046 292.229 20.3209C292.229 19.817 292.37 19.4139 292.653 19.1116C292.955 18.8093 293.348 18.6581 293.832 18.6581C294.356 18.6581 294.769 18.8395 295.071 19.2023C295.373 19.5449 295.525 20.0488 295.525 20.7139C295.525 21.1372 295.484 21.5806 295.404 22.0442C295.323 22.4876 295.182 22.9411 294.98 23.4046C294.779 23.8682 294.507 24.3116 294.164 24.7348ZM303.664 40.365C302.758 40.365 301.84 40.2541 300.913 40.0324C300.006 39.8107 299.16 39.4278 298.374 38.8836C298.172 38.7425 298.031 38.5813 297.951 38.3999C297.87 38.1983 297.84 38.0069 297.86 37.8255C297.9 37.6239 297.981 37.4526 298.102 37.3115C298.243 37.1704 298.404 37.0898 298.585 37.0697C298.787 37.0293 299.009 37.0697 299.251 37.1906C300.037 37.6743 300.792 38.0169 301.518 38.2185C302.264 38.3999 302.999 38.4906 303.725 38.4906C304.874 38.4906 305.74 38.279 306.325 37.8557C306.909 37.4324 307.202 36.858 307.202 36.1325C307.202 35.5681 307.01 35.1247 306.627 34.8022C306.244 34.4596 305.64 34.1976 304.813 34.0162L302.062 33.4115C300.792 33.1495 299.845 32.696 299.22 32.0511C298.616 31.4061 298.313 30.5697 298.313 29.5418C298.313 28.6348 298.545 27.8589 299.009 27.2139C299.492 26.5488 300.168 26.0348 301.034 25.672C301.901 25.3093 302.909 25.1279 304.058 25.1279C304.944 25.1279 305.781 25.2488 306.567 25.4907C307.373 25.7124 308.099 26.0751 308.744 26.579C308.945 26.7201 309.076 26.8914 309.137 27.093C309.217 27.2744 309.227 27.4658 309.167 27.6674C309.126 27.8488 309.036 28.01 308.895 28.1511C308.754 28.272 308.582 28.3426 308.381 28.3627C308.179 28.3829 307.968 28.3224 307.746 28.1813C307.141 27.7782 306.526 27.486 305.902 27.3046C305.277 27.103 304.662 27.0023 304.058 27.0023C302.929 27.0023 302.072 27.224 301.488 27.6674C300.903 28.1108 300.611 28.6953 300.611 29.4209C300.611 29.9852 300.792 30.4488 301.155 30.8116C301.518 31.1743 302.082 31.4364 302.848 31.5976L305.599 32.172C306.909 32.4542 307.887 32.9077 308.532 33.5325C309.197 34.1371 309.53 34.9635 309.53 36.0115C309.53 37.3417 308.995 38.3999 307.927 39.1859C306.859 39.972 305.438 40.365 303.664 40.365ZM328.493 40.365C327.163 40.365 326.014 40.0224 325.047 39.3371C324.099 38.6518 323.464 37.7348 323.142 36.5859L323.474 36.2534V39.0348C323.474 39.4379 323.364 39.7503 323.142 39.972C322.94 40.1937 322.648 40.3045 322.265 40.3045C321.862 40.3045 321.56 40.1937 321.358 39.972C321.157 39.7503 321.056 39.4379 321.056 39.0348V19.807C321.056 19.4039 321.157 19.1015 321.358 18.9C321.56 18.6783 321.862 18.5674 322.265 18.5674C322.648 18.5674 322.95 18.6783 323.172 18.9C323.394 19.1015 323.505 19.4039 323.505 19.807V28.8162H323.142C323.485 27.6875 324.13 26.7906 325.077 26.1255C326.024 25.4604 327.163 25.1279 328.493 25.1279C329.823 25.1279 330.972 25.4403 331.94 26.0651C332.907 26.6697 333.653 27.5465 334.177 28.6953C334.721 29.824 334.993 31.1743 334.993 32.7464C334.993 34.2984 334.721 35.6487 334.177 36.7976C333.653 37.9262 332.897 38.803 331.909 39.4278C330.942 40.0526 329.803 40.365 328.493 40.365ZM327.979 38.3999C328.906 38.3999 329.702 38.1782 330.367 37.7348C331.053 37.2914 331.577 36.6464 331.94 35.7999C332.323 34.9534 332.514 33.9356 332.514 32.7464C332.514 30.9123 332.101 29.5116 331.274 28.5441C330.468 27.5767 329.37 27.093 327.979 27.093C327.072 27.093 326.276 27.3147 325.591 27.7581C324.905 28.1813 324.371 28.8162 323.988 29.6627C323.626 30.4891 323.444 31.517 323.444 32.7464C323.444 34.5604 323.857 35.9611 324.684 36.9487C325.51 37.9162 326.609 38.3999 327.979 38.3999ZM343.307 40.365C342.299 40.365 341.392 40.1735 340.586 39.7906C339.8 39.3875 339.175 38.8433 338.712 38.158C338.248 37.4728 338.017 36.7069 338.017 35.8604C338.017 34.772 338.289 33.9154 338.833 33.2906C339.397 32.6658 340.314 32.2224 341.584 31.9604C342.874 31.6984 344.627 31.5674 346.844 31.5674H348.205V33.1697H346.875C345.242 33.1697 343.952 33.2503 343.005 33.4115C342.078 33.5526 341.423 33.8046 341.04 34.1673C340.677 34.5301 340.496 35.0441 340.496 35.7092C340.496 36.5356 340.778 37.2107 341.342 37.7348C341.927 38.2588 342.713 38.5208 343.7 38.5208C344.506 38.5208 345.212 38.3293 345.816 37.9464C346.441 37.5635 346.925 37.0394 347.268 36.3743C347.63 35.7092 347.812 34.9433 347.812 34.0766V30.6302C347.812 29.3806 347.56 28.4837 347.056 27.9395C346.552 27.3751 345.726 27.093 344.577 27.093C343.872 27.093 343.166 27.1837 342.461 27.3651C341.755 27.5465 341.01 27.8387 340.223 28.2418C339.941 28.3829 339.699 28.4333 339.498 28.393C339.296 28.3325 339.135 28.2216 339.014 28.0604C338.893 27.8992 338.823 27.7178 338.803 27.5162C338.782 27.2945 338.823 27.0829 338.923 26.8813C339.044 26.6798 339.226 26.5186 339.468 26.3976C340.354 25.9542 341.231 25.6317 342.098 25.4302C342.965 25.2286 343.791 25.1279 344.577 25.1279C345.847 25.1279 346.895 25.3395 347.721 25.7627C348.547 26.1658 349.162 26.7906 349.565 27.6372C349.968 28.4635 350.17 29.5317 350.17 30.8418V39.0348C350.17 39.4379 350.069 39.7503 349.868 39.972C349.686 40.1937 349.414 40.3045 349.051 40.3045C348.668 40.3045 348.376 40.1937 348.175 39.972C347.973 39.7503 347.872 39.4379 347.872 39.0348V36.6766H348.144C347.983 37.4425 347.671 38.0976 347.207 38.6417C346.764 39.1859 346.209 39.6092 345.544 39.9115C344.879 40.2138 344.134 40.365 343.307 40.365ZM355.922 40.3045C355.519 40.3045 355.217 40.1937 355.015 39.972C354.814 39.7503 354.713 39.4379 354.713 39.0348V19.807C354.713 19.4039 354.814 19.1015 355.015 18.9C355.217 18.6783 355.519 18.5674 355.922 18.5674C356.305 18.5674 356.608 18.6783 356.829 18.9C357.051 19.1015 357.162 19.4039 357.162 19.807V31.9302H357.222L363.42 26.0046C363.702 25.7426 363.944 25.541 364.146 25.4C364.367 25.2589 364.66 25.1883 365.022 25.1883C365.345 25.1883 365.597 25.279 365.778 25.4604C365.96 25.6217 366.04 25.8333 366.02 26.0953C366.02 26.3372 365.899 26.5992 365.657 26.8813L359.067 33.1394V31.8092L366.232 38.551C366.514 38.8332 366.655 39.1053 366.655 39.3673C366.655 39.6293 366.554 39.851 366.353 40.0324C366.171 40.2138 365.929 40.3045 365.627 40.3045C365.264 40.3045 364.972 40.234 364.75 40.0929C364.529 39.9317 364.256 39.6999 363.934 39.3976L357.222 33.1999H357.162V39.0348C357.162 39.8813 356.749 40.3045 355.922 40.3045ZM376.066 40.365C374.514 40.365 373.174 40.0627 372.045 39.458C370.937 38.8332 370.07 37.9565 369.445 36.8278C368.841 35.6991 368.538 34.3487 368.538 32.7767C368.538 31.2449 368.841 29.9147 369.445 28.786C370.05 27.6372 370.876 26.7403 371.924 26.0953C372.993 25.4503 374.222 25.1279 375.613 25.1279C376.6 25.1279 377.487 25.2992 378.273 25.6418C379.059 25.9643 379.724 26.4379 380.269 27.0627C380.833 27.6875 381.256 28.4433 381.538 29.3302C381.841 30.217 381.992 31.2147 381.992 32.3232C381.992 32.6457 381.901 32.8875 381.72 33.0487C381.538 33.1898 381.276 33.2604 380.934 33.2604H370.413V31.6581H380.359L379.876 32.0511C379.876 30.9627 379.714 30.0457 379.392 29.2999C379.069 28.534 378.596 27.9496 377.971 27.5465C377.366 27.1434 376.6 26.9418 375.673 26.9418C374.645 26.9418 373.769 27.1837 373.043 27.6674C372.338 28.1309 371.804 28.786 371.441 29.6325C371.078 30.4588 370.897 31.4263 370.897 32.5348V32.7162C370.897 34.5704 371.34 35.9813 372.227 36.9487C373.134 37.9162 374.414 38.3999 376.066 38.3999C376.752 38.3999 377.427 38.3092 378.092 38.1278C378.777 37.9464 379.442 37.6441 380.087 37.2208C380.369 37.0394 380.621 36.9588 380.843 36.979C381.085 36.979 381.276 37.0495 381.417 37.1906C381.559 37.3115 381.649 37.4728 381.69 37.6743C381.75 37.8557 381.73 38.0572 381.629 38.279C381.548 38.5007 381.377 38.6921 381.115 38.8534C380.45 39.3371 379.664 39.71 378.757 39.972C377.85 40.234 376.953 40.365 376.066 40.365ZM386.775 40.3045C386.372 40.3045 386.06 40.1937 385.838 39.972C385.637 39.7503 385.536 39.4379 385.536 39.0348V26.4279C385.536 26.0248 385.637 25.7224 385.838 25.5209C386.04 25.2992 386.332 25.1883 386.715 25.1883C387.098 25.1883 387.39 25.2992 387.592 25.5209C387.813 25.7224 387.924 26.0248 387.924 26.4279V28.8767H387.622C387.944 27.6875 388.559 26.7705 389.466 26.1255C390.373 25.4806 391.492 25.1379 392.822 25.0976C393.124 25.0775 393.366 25.148 393.547 25.3093C393.729 25.4503 393.83 25.7023 393.85 26.0651C393.87 26.4077 393.789 26.6798 393.608 26.8813C393.427 27.0829 393.144 27.2038 392.761 27.2441L392.278 27.3046C390.907 27.4255 389.849 27.8689 389.103 28.6348C388.378 29.3806 388.015 30.4085 388.015 31.7185V39.0348C388.015 39.4379 387.904 39.7503 387.682 39.972C387.481 40.1937 387.179 40.3045 386.775 40.3045ZM400.551 45.7464C400.249 45.7464 400.007 45.6657 399.826 45.5045C399.645 45.3433 399.534 45.1215 399.493 44.8394C399.473 44.5774 399.524 44.3053 399.645 44.0231L401.731 39.3371V40.3952L395.926 26.9116C395.805 26.6092 395.765 26.3271 395.805 26.0651C395.845 25.8031 395.966 25.5914 396.168 25.4302C396.369 25.2689 396.652 25.1883 397.014 25.1883C397.337 25.1883 397.589 25.2589 397.77 25.4C397.952 25.541 398.113 25.793 398.254 26.1558L403.212 38.3092H402.396L407.414 26.1558C407.575 25.793 407.747 25.541 407.928 25.4C408.11 25.2589 408.372 25.1883 408.714 25.1883C409.037 25.1883 409.279 25.2689 409.44 25.4302C409.621 25.5914 409.722 25.8031 409.742 26.0651C409.782 26.3069 409.742 26.579 409.621 26.8813L401.882 44.7789C401.72 45.1417 401.539 45.3936 401.338 45.5347C401.156 45.6758 400.894 45.7464 400.551 45.7464Z" fill="white"/>
</svg>
